<?xml version="1.0" encoding="utf-8"?>
<!-- Generator: Adobe Illustrator 28.2.0, SVG Export Plug-In . SVG Version: 6.00 Build 0)  -->
<svg version="1.1" id="Layer_1" xmlns="http://www.w3.org/2000/svg" xmlns:xlink="http://www.w3.org/1999/xlink" x="0px" y="0px"
	 viewBox="0 0 512 512" style="enable-background:new 0 0 512 512;" xml:space="preserve">
<style type="text/css">
	.st0{fill:#F08636;}
	.st1{fill:#0069B3;}
</style>
<g id="ICON_00000118383231426897635770000015237845556383657145_">
	<g id="WOMAN_00000173162244618036026400000017917456135562381201_">
		<path class="st0" d="M20.6,140.4c16.5-47.5,12.7-98.1-8-140.1h25.8C49.5,46.1,44,96.1,20.6,140.4z"/>
	</g>
	<g id="MAN_00000181779134658995224760000009090887507527843982_">
		<g>
			<g>
				<path class="st1" d="M104.7,34.6c-0.8,6.4-3.2,22.6-10.4,42.3c-10,27.5-23.9,47.6-34.1,60.2c6-16.2,13.1-40.2,15.3-70.1
					c1.3-17.3,2.7-39.2-4.3-66.7v0H106C106.6,11.1,106.3,22.6,104.7,34.6z"/>
			</g>
		</g>
	</g>
</g>
<g id="ICON_00000067927815384839585050000013081212814691715245_">
	<g id="WOMAN_00000093895739438985142790000016383431843034860177_">
		<circle class="st0" cx="365.1" cy="382.4" r="39.3"/>
		<path class="st0" d="M418.6,281.4c-0.6,5.1-2.5,8.9-3.9,11.1c-0.4,0.6-2.5,1.1-3.2,1.5c-1.2,0.5-2.5,1.1-3.7,1.8
			c-2.4,1.1-4.8,2.3-7.2,3.4c-4.6,2.2-9.2,4.5-13.6,6.8c-4.8,2.5-9.6,5-14.5,7.4c-58,33.1-109.3,78-150.9,130.3
			c-14.4,18.4-27.2,37.7-39.2,57.9c-2.2,3.6-4.3,7.2-6.5,10.7h-11.6c1.6-5.6,3.3-11.2,5.4-16.8c16.2-46.4,38-90.3,69.3-128.9
			c8-9.7,16.6-19.2,25.5-28.2c-13.5-0.7-36.3-2.5-58.5-16.9C172,299.3,160,260.6,155.9,231c-12,0.3-24.3-0.5-36.8-2.6
			c-48-8.2-90.1-34.8-119.1-72.6v-22.4c32.1,35.3,77.1,56.9,124.9,57.6c9.4,0.1,18.6-0.5,27.5-1.9c-2.8-57,4.5-139.3,44.5-188.8
			h31.3c-8,10.7-14.4,21-17.9,27.5c-41.5,78.5-40.4,220.3,62.1,251.2c25,7.6,48.6,5,67.8-0.4c19.2-11.4,39.7-20.8,61.1-27.5
			c3.1,1.6,7.7,4.5,11.4,9.8C414.4,263.1,419.9,270.9,418.6,281.4z"/>
	</g>
	<g id="MAN_00000081635911753929111500000006680342502294300822_">
		<g>
			<circle class="st1" cx="286.1" cy="465.2" r="38.5"/>
		</g>
		<g>
			<g>
				<path class="st1" d="M216.6,356c-7.3,10.9-14.5,22.7-21.6,35.5c-0.1,0.1-0.2,0.4-0.3,0.5c-0.8,1.4-1.6,2.9-2.4,4.4
					c-22.1,40.6-36.5,79.2-46,113c-1.8-11.1-3.6-26.4-3.5-44.8c0-17.5-2.5-47.2,11.7-80.2c0.7-1.7,1.5-3.3,2.2-5
					c-0.1-0.1-0.3-0.1-0.4-0.3c-26.4-16.5-35.4-42.7-38.1-52.1c-2.4-8.5-3.3-16.6-3.2-24.4c0-1.9,0.1-3.8,0.2-5.6
					c-22.7-1.7-49.9-5.4-70-15.5c-7.5-3.8-25.7-13.1-45.2-30.1v-47.6c2.1,1.9,4.4,3.7,6.7,5.6c33.9,26.8,67.9,33.6,76.2,35.1
					c20.9,3.8,42.1,5.2,53.9,3.8c1.3,13.5,1.4,30.6,11.9,50.6c1.4,2.7,3,5.3,4.6,8.1c4.6,7.5,11.6,18.5,24.5,28.8
					c0.5,0.4,1,0.8,1.4,1.1c0,0,0.1,0,0.1,0c11.4,8.7,23.5,13.8,28.9,16C211.5,354.1,214.3,355.2,216.6,356z"/>
			</g>
		</g>
	</g>
</g>
<g id="ICON_00000145762906456869989280000015157209484214663846_">
	<g id="WOMAN_00000003799223875891771730000009698296037254604429_">
		<circle class="st0" cx="447.6" cy="199.6" r="35.4"/>
		<path class="st0" d="M512,16.1v184.6c-0.6-0.9-1.3-1.8-1.9-2.7c-36.5-47.8-82.7-88.3-134.4-119.2c-18.2-10.6-36.9-19.8-56.3-28.1
			C306.2,45,294,39.4,280,33.4c15.6,1,29.2,2.1,43.4,5.3c43.4,8.9,85.2,23.1,123.3,46.5c9.6,6,19.1,12.5,28.3,19.4
			c-1-12.1-2.1-32.7,8.1-54.2C490.1,35.8,500.4,24.6,512,16.1z"/>
	</g>
	<g id="MAN_00000016757008712367764240000007422739638606608022_">
		<g>
			<circle class="st1" cx="364.3" cy="139" r="34.7"/>
		</g>
		<g>
			<g>
				<path class="st1" d="M491.8,0c-0.6,0.5-1.3,1-1.9,1.5c-6.1,5-15.2,12.6-22.8,25.3c-0.3,0.5-0.6,1-0.8,1.4c0,0,0,0.1,0,0.1
					c-6.4,11.2-9.5,22.6-10.9,27.7c-0.8,3.1-1.4,5.7-1.8,7.8c-10.6-5.2-22.1-10.3-34.2-15c-0.1-0.1-0.3-0.1-0.5-0.2
					c-1.4-0.5-2.8-1.1-4.2-1.6c-38.9-14.9-75.1-23.1-106.4-27.6c9.6-2.9,23.1-6.3,39.6-8.5c15.6-2.1,41.8-7.9,73,0.9
					c1.6,0.4,3.2,0.9,4.8,1.4c0.1-0.1,0.1-0.2,0.2-0.4c2.1-4.7,4.7-8.9,7.4-12.7H491.8z"/>
			</g>
		</g>
	</g>
</g>
</svg>
