<svg width="32" height="33" viewBox="0 0 32 33" fill="none" xmlns="http://www.w3.org/2000/svg">
<path d="M5 30.3816C4.73478 30.3816 4.48043 30.2762 4.29289 30.0887C4.10536 29.9012 4 29.6468 4 29.3816C4 29.1164 4.10536 28.862 4.29289 28.6745C4.48043 28.4869 4.73478 28.3816 5 28.3816H7V26.3816C6.99959 24.6835 7.47957 23.02 8.3845 21.5831C9.28943 20.1463 10.5824 18.9948 12.114 18.2616C12.694 17.9836 13 17.5076 13 17.0816V15.6816C13 15.2556 12.692 14.7796 12.114 14.5016C10.5824 13.7684 9.28943 12.6169 8.3845 11.18C7.47957 9.74319 6.99959 8.07965 7 6.38159V4.38159H5C4.73478 4.38159 4.48043 4.27623 4.29289 4.0887C4.10536 3.90116 4 3.64681 4 3.38159C4 3.11638 4.10536 2.86202 4.29289 2.67448C4.48043 2.48695 4.73478 2.38159 5 2.38159H27C27.2652 2.38159 27.5196 2.48695 27.7071 2.67448C27.8946 2.86202 28 3.11638 28 3.38159C28 3.64681 27.8946 3.90116 27.7071 4.0887C27.5196 4.27623 27.2652 4.38159 27 4.38159H25V6.38159C25.0004 8.07965 24.5204 9.74319 23.6155 11.18C22.7106 12.6169 21.4176 13.7684 19.886 14.5016C19.306 14.7796 19 15.2556 19 15.6816V17.0816C19 17.5076 19.308 17.9836 19.886 18.2616C21.4176 18.9948 22.7106 20.1463 23.6155 21.5831C24.5204 23.02 25.0004 24.6835 25 26.3816V28.3816H27C27.2652 28.3816 27.5196 28.4869 27.7071 28.6745C27.8946 28.862 28 29.1164 28 29.3816C28 29.6468 27.8946 29.9012 27.7071 30.0887C27.5196 30.2762 27.2652 30.3816 27 30.3816H5ZM9 4.38159V6.38159C9 7.45559 9.24 8.47159 9.674 9.38159H22.326C22.758 8.47159 23 7.45559 23 6.38159V4.38159H9ZM15 17.0816C15 18.4836 14.044 19.5536 12.978 20.0656C11.7866 20.6358 10.7808 21.5315 10.0769 22.6491C9.37298 23.7668 8.99964 25.0608 9 26.3816C9 26.3816 10.732 23.7836 15 23.4216V17.0816ZM17 17.0816V23.4216C21.268 23.7836 23 26.3816 23 26.3816C23.0004 25.0608 22.627 23.7668 21.9231 22.6491C21.2192 21.5315 20.2134 20.6358 19.022 20.0656C17.956 19.5536 17 18.4836 17 17.0816Z" fill="#FF8931"/>
</svg>
