<svg width="33" height="33" viewBox="0 0 33 33" fill="none" xmlns="http://www.w3.org/2000/svg">
<g clip-path="url(#clip0_99_26)">
<path d="M0.666748 26.8816C0.666748 27.6772 0.982819 28.4403 1.54543 29.0029C2.10804 29.5655 2.8711 29.8816 3.66675 29.8816H29.6667C30.4624 29.8816 31.2255 29.5655 31.7881 29.0029C32.3507 28.4403 32.6667 27.6772 32.6667 26.8816V12.8816C32.6667 12.0859 32.3507 11.3229 31.7881 10.7603C31.2255 10.1977 30.4624 9.88159 29.6667 9.88159H3.66675C2.8711 9.88159 2.10804 10.1977 1.54543 10.7603C0.982819 11.3229 0.666748 12.0859 0.666748 12.8816L0.666748 26.8816ZM4.66675 6.88159C4.66675 7.14681 4.77211 7.40116 4.95964 7.5887C5.14718 7.77623 5.40153 7.88159 5.66675 7.88159H27.6667C27.932 7.88159 28.1863 7.77623 28.3739 7.5887C28.5614 7.40116 28.6667 7.14681 28.6667 6.88159C28.6667 6.61637 28.5614 6.36202 28.3739 6.17448C28.1863 5.98695 27.932 5.88159 27.6667 5.88159H5.66675C5.40153 5.88159 5.14718 5.98695 4.95964 6.17448C4.77211 6.36202 4.66675 6.61637 4.66675 6.88159ZM8.66675 2.88159C8.66675 3.14681 8.77211 3.40116 8.95964 3.5887C9.14718 3.77623 9.40153 3.88159 9.66675 3.88159H23.6667C23.932 3.88159 24.1863 3.77623 24.3739 3.5887C24.5614 3.40116 24.6667 3.14681 24.6667 2.88159C24.6667 2.61638 24.5614 2.36202 24.3739 2.17448C24.1863 1.98695 23.932 1.88159 23.6667 1.88159H9.66675C9.40153 1.88159 9.14718 1.98695 8.95964 2.17448C8.77211 2.36202 8.66675 2.61638 8.66675 2.88159Z" fill="#FF8931"/>
</g>
<defs>
<clipPath id="clip0_99_26">
<rect width="32" height="32" fill="white" transform="translate(0.666748 0.381592)"/>
</clipPath>
</defs>
</svg>
