<svg width="33" height="33" viewBox="0 0 33 33" fill="none" xmlns="http://www.w3.org/2000/svg">
<g clip-path="url(#clip0_99_15)">
<path d="M14.3334 28.3816C14.3334 28.3816 12.3334 28.3816 12.3334 26.3816C12.3334 24.3816 14.3334 18.3816 22.3334 18.3816C30.3334 18.3816 32.3334 24.3816 32.3334 26.3816C32.3334 28.3816 30.3334 28.3816 30.3334 28.3816H14.3334ZM22.3334 16.3816C23.9247 16.3816 25.4508 15.7495 26.576 14.6242C27.7012 13.499 28.3334 11.9729 28.3334 10.3816C28.3334 8.79029 27.7012 7.26417 26.576 6.13895C25.4508 5.01373 23.9247 4.38159 22.3334 4.38159C20.7421 4.38159 19.216 5.01373 18.0907 6.13895C16.9655 7.26417 16.3334 8.79029 16.3334 10.3816C16.3334 11.9729 16.9655 13.499 18.0907 14.6242C19.216 15.7495 20.7421 16.3816 22.3334 16.3816ZM10.7654 28.3816C10.469 27.7572 10.3212 27.0727 10.3334 26.3816C10.3334 23.6716 11.6934 20.8816 14.2054 18.9416C12.9517 18.5545 11.6453 18.3655 10.3334 18.3816C2.33337 18.3816 0.333374 24.3816 0.333374 26.3816C0.333374 28.3816 2.33337 28.3816 2.33337 28.3816H10.7654ZM9.33337 16.3816C10.6595 16.3816 11.9312 15.8548 12.8689 14.9171C13.8066 13.9794 14.3334 12.7077 14.3334 11.3816C14.3334 10.0555 13.8066 8.78374 12.8689 7.84606C11.9312 6.90838 10.6595 6.38159 9.33337 6.38159C8.00729 6.38159 6.73552 6.90838 5.79784 7.84606C4.86016 8.78374 4.33337 10.0555 4.33337 11.3816C4.33337 12.7077 4.86016 13.9794 5.79784 14.9171C6.73552 15.8548 8.00729 16.3816 9.33337 16.3816Z" fill="#FF8931"/>
</g>
<defs>
<clipPath id="clip0_99_15">
<rect width="32" height="32" fill="white" transform="translate(0.333374 0.381592)"/>
</clipPath>
</defs>
</svg>
