<svg xmlns="http://www.w3.org/2000/svg" version="1.1" xmlns:xlink="http://www.w3.org/1999/xlink" width="512" height="512"><svg id="SvgjsSvg1010" data-name="Layer 1" xmlns="http://www.w3.org/2000/svg" viewBox="0 0 512 512">
  <rect y="0" width="512" height="512" rx="64" ry="64" style="fill: #231f20; stroke-width: 0px;"></rect>
  <g id="SvgjsG1009">
    <g id="SvgjsG1008">
      <circle cx="226.24" cy="90.16" r="29.61" style="fill: #ff8931; stroke-width: 0px;"></circle>
      <path d="M423.84,90.03c-9.82,8.6-18.55,16-28.9,22.41-31.01,20.29-64.25,36.5-100.69,45.12-9.28,2.1-18.73,3.86-28.22,5.15,7.77,6.61,20.55,18.19,27.15,37.01,10.2,28.92-.36,57.55-11.54,77.1,7.31,5.35,14.26,11.47,20.75,18.49,41.45,44.98,49.75,112.96,20.2,168.71,18.98-54.71,2.26-114.81-40.87-149.04-5.55-4.39-11.34-8.21-17.3-11.45-32.94,47.48-97.63,113.7-162.29,89.83-7.15-2.63-11.42-5.51-13.96-7.84,20,4.97,54.69-6.48,67.47-12.3,60.86-27.8,125.44-113.04,78.4-178.63-11.47-16.02-26.75-25.39-40.67-30.93-16.72-2.06-33.24-5.84-49.13-11.63-1.11-2.33-2.51-6.19-2.34-11.09.05-2.13.38-9.36,6-15.02,2.66-2.76,5.58-4.16,7.39-4.82.48-.16,2,.46,2.58.58.99.25,2.01.46,3.05.66,1.92.45,3.9.86,5.86,1.24,3.74.78,7.52,1.55,11.26,2.21,4.03.74,8.05,1.44,12.08,2.23,49.86,6.9,101.18,3.65,150.1-8.43,17.05-4.39,33.6-9.97,50.03-16.55,11.26-4.43,21.78-8.27,33.6-12.98Z" style="fill: #ff8931; stroke-width: 0px;"></path>
    </g>
    <g id="SvgjsG1007">
      <circle cx="311.55" cy="77.03" r="29.03" style="fill: #0062d8; stroke-width: 0px;"></circle>
      <path d="M353.02,185.94c-1.19.66-2.41,1.32-3.65,1.98.04.12.08.2.12.33,8.18,22.05,1.53,41.77-1.22,48.63-2.47,6.17-5.68,11.47-9.29,16.02-.86,1.11-1.77,2.21-2.71,3.24,12.78,11.47,27.32,26.21,34.67,41.46,4.72,9.81,20.62,43.87,15.07,86.7-.61,4.82-2.43,17.01-7.81,31.92-7.51,20.75-18.03,35.86-25.71,45.35,4.52-12.2,9.9-30.32,11.54-52.87.95-13.02,2.01-29.58-3.24-50.32-7.97-31.59-25.14-51.3-29.41-56.03-10.76-11.87-22.77-22.47-30.46-27.03,5.46-8.67,13.25-18.89,16.17-35.69.36-2.26.69-4.56.94-6.95.69-6.57,1.6-16.42-1.4-28.46-.12-.46-.25-.91-.33-1.32-.04,0-.04-.04-.04-.04-2.84-10.44-7.68-19.06-9.9-22.89-1.35-2.3-2.54-4.19-3.53-5.71,9.37-3.2,19.14-6.9,29.21-11.26.12-.04.28-.12.41-.16,1.14-.48,2.3-.98,3.49-1.52,31.84-14.08,58.21-30.55,79.44-46.33-4.01,7.43-10.02,17.41-18.49,28.39-8.01,10.43-20.2,29.33-43.87,42.55Z" style="fill: #0062d8; stroke-width: 0px;"></path>
    </g>
  </g>
</svg><style>@media (prefers-color-scheme: light) { :root { filter: none; } }
@media (prefers-color-scheme: dark) { :root { filter: none; } }
</style></svg>