<?xml version="1.0" encoding="UTF-8"?>
<svg id="LOOG_SQUARE_COLOR_LIGHT" data-name="LOOG SQUARE COLOR LIGHT" xmlns="http://www.w3.org/2000/svg" viewBox="0 0 1000 1000">
  <defs>
    <style>
      .cls-1 {
        fill: none;
      }

      .cls-2 {
        fill: #ff8931;
      }

      .cls-3 {
        fill: #fff;
      }

      .cls-4 {
        fill: #0062d8;
      }
    </style>
  </defs>
  <g id="TEXT">
    <g id="Taneční_studio" data-name="Taneční studio">
      <g>
        <rect class="cls-1" x="145.19" y="669.71" width="667.11" height="82.18"/>
        <path class="cls-3" d="M146.88,686.02v-14.43h57.45v14.43h-57.45ZM167.22,738.04v-65.98h16.78v65.98h-16.78Z"/>
        <path class="cls-3" d="M222.24,738.98c-4.25,0-8.03-1.03-11.34-3.09-3.31-2.06-5.9-4.89-7.78-8.48-1.88-3.59-2.81-7.67-2.81-12.23s.94-8.75,2.81-12.37c1.88-3.62,4.47-6.45,7.78-8.48,3.31-2.03,7.09-3.05,11.34-3.05,2.87,0,5.5.52,7.87,1.55,2.37,1.03,4.33,2.48,5.86,4.36,1.53,1.87,2.45,4,2.76,6.37v23.06c-.31,2.44-1.23,4.58-2.76,6.42-1.53,1.84-3.48,3.3-5.86,4.36-2.38,1.06-5,1.59-7.87,1.59ZM225.7,724.45c2.69,0,4.86-.88,6.51-2.62,1.66-1.75,2.48-4,2.48-6.75,0-1.81-.38-3.41-1.12-4.78-.75-1.37-1.8-2.47-3.14-3.28-1.35-.81-2.89-1.22-4.64-1.22s-3.3.41-4.64,1.22c-1.35.81-2.41,1.92-3.19,3.33-.78,1.41-1.17,2.98-1.17,4.73s.38,3.42,1.12,4.83c.75,1.41,1.81,2.52,3.19,3.33,1.37.81,2.9,1.22,4.59,1.22ZM234.05,738.04v-12.28l2.34-11.25-2.34-11.06v-11.25h16.03v45.83h-16.03Z"/>
        <path class="cls-3" d="M262.45,738.04v-45.83h16.31v45.83h-16.31ZM292.16,738.04v-25.87c0-2.12-.62-3.8-1.88-5.01s-2.84-1.83-4.78-1.83c-1.31,0-2.48.28-3.52.84-1.03.56-1.83,1.34-2.39,2.34-.56,1-.84,2.22-.84,3.66l-6.37-3c0-3.69.81-6.86,2.44-9.51,1.62-2.66,3.86-4.72,6.7-6.19,2.84-1.47,6.08-2.2,9.7-2.2,3.31,0,6.26.77,8.86,2.3,2.59,1.53,4.64,3.58,6.14,6.14,1.5,2.56,2.25,5.47,2.25,8.72v29.62h-16.31Z"/>
        <path class="cls-3" d="M343.05,739.07c-5.12,0-9.65-1.02-13.59-3.05-3.94-2.03-7.03-4.86-9.28-8.48-2.25-3.62-3.38-7.78-3.38-12.47s1.09-8.73,3.28-12.33c2.19-3.59,5.17-6.43,8.95-8.53,3.78-2.09,8.04-3.14,12.79-3.14s8.73.98,12.32,2.95c3.59,1.97,6.4,4.69,8.44,8.15,2.03,3.47,3.05,7.42,3.05,11.86,0,.94-.05,1.89-.14,2.86s-.3,2.08-.61,3.33l-40.4.19v-10.5l33.93-.28-7.31,4.59c-.06-2.56-.44-4.67-1.12-6.33-.69-1.66-1.69-2.92-3-3.8-1.31-.87-2.97-1.31-4.97-1.31s-3.84.5-5.34,1.5c-1.5,1-2.66,2.41-3.47,4.22-.81,1.81-1.22,4-1.22,6.56s.44,4.86,1.31,6.7c.87,1.84,2.12,3.23,3.75,4.17s3.62,1.41,6,1.41c2.25,0,4.23-.38,5.95-1.12,1.72-.75,3.26-1.91,4.64-3.47l8.53,8.53c-2.25,2.56-4.98,4.5-8.2,5.81-3.22,1.31-6.86,1.97-10.92,1.97Z"/>
        <path class="cls-3" d="M397.32,739.07c-4.88,0-9.27-1.03-13.17-3.09-3.9-2.06-6.98-4.91-9.23-8.53-2.25-3.62-3.38-7.72-3.38-12.28s1.14-8.75,3.42-12.37c2.28-3.62,5.37-6.48,9.28-8.58,3.9-2.09,8.33-3.14,13.26-3.14,3.56,0,6.81.59,9.75,1.78,2.94,1.19,5.62,2.97,8.06,5.34l-10.31,10.31c-.94-.94-2.02-1.64-3.23-2.11s-2.64-.7-4.26-.7c-1.75,0-3.33.39-4.73,1.17-1.41.78-2.53,1.86-3.37,3.23-.84,1.38-1.27,3.03-1.27,4.97s.42,3.51,1.27,4.92c.84,1.41,1.97,2.52,3.37,3.33,1.41.81,2.98,1.22,4.73,1.22s3.25-.28,4.5-.84,2.34-1.37,3.28-2.44l10.4,10.31c-2.56,2.5-5.33,4.37-8.29,5.62-2.97,1.25-6.33,1.88-10.07,1.88ZM410.53,668.12l4.69,6.94-14.15,13.12h-8.53l-14.15-13.12,4.69-6.94,20.15,10.87h-12.84l20.15-10.87Z"/>
        <path class="cls-3" d="M424.4,738.04v-45.83h16.31v45.83h-16.31ZM454.11,738.04v-25.87c0-2.12-.62-3.8-1.88-5.01s-2.84-1.83-4.78-1.83c-1.31,0-2.48.28-3.52.84-1.03.56-1.83,1.34-2.39,2.34-.56,1-.84,2.22-.84,3.66l-6.37-3c0-3.69.81-6.86,2.44-9.51,1.62-2.66,3.86-4.72,6.7-6.19,2.84-1.47,6.08-2.2,9.7-2.2,3.31,0,6.26.77,8.86,2.3,2.59,1.53,4.64,3.58,6.14,6.14,1.5,2.56,2.25,5.47,2.25,8.72v29.62h-16.31Z"/>
        <path class="cls-3" d="M482.51,687.8l-4.69-8.06,16.4-13.31,7.78,12.75-19.49,8.62ZM481.85,738.04v-45.83h16.31v45.83h-16.31Z"/>
      </g>
      <g>
        <rect class="cls-1" x="145.19" y="776.5" width="694.48" height="86.74"/>
        <path class="cls-3" d="M167.41,846.13c-2.81,0-5.58-.38-8.29-1.12-2.72-.75-5.25-1.76-7.59-3.05-2.34-1.28-4.33-2.77-5.95-4.45l8.9-9.09c1.5,1.56,3.29,2.78,5.39,3.66,2.09.88,4.33,1.31,6.7,1.31,1.38,0,2.42-.19,3.14-.56.72-.38,1.08-.91,1.08-1.59,0-1-.52-1.76-1.55-2.3-1.03-.53-2.38-1-4.03-1.41-1.66-.41-3.39-.91-5.2-1.5-1.81-.59-3.56-1.39-5.25-2.39-1.69-1-3.05-2.41-4.08-4.22-1.03-1.81-1.55-4.12-1.55-6.94s.8-5.51,2.39-7.73c1.59-2.22,3.83-3.97,6.7-5.25,2.87-1.28,6.25-1.92,10.12-1.92s7.69.67,11.25,2.02c3.56,1.34,6.43,3.36,8.62,6.04l-9,9.09c-1.5-1.69-3.16-2.86-4.97-3.51s-3.47-.98-4.97-.98-2.47.2-3.09.61c-.62.41-.94.95-.94,1.64,0,.81.52,1.47,1.54,1.97,1.03.5,2.38.95,4.03,1.36,1.65.41,3.37.92,5.15,1.55,1.78.63,3.5,1.49,5.16,2.58,1.65,1.09,3,2.55,4.03,4.36,1.03,1.81,1.55,4.16,1.55,7.03,0,4.56-1.75,8.17-5.25,10.83-3.5,2.66-8.19,3.98-14.06,3.98Z"/>
        <path class="cls-3" d="M195.9,812.58v-13.59h36.55v13.59h-36.55ZM206.02,844.82v-64.76h16.31v64.76h-16.31Z"/>
        <path class="cls-3" d="M264.79,845.85c-4.31,0-8.14-.86-11.48-2.58s-5.97-4.12-7.87-7.22-2.86-6.61-2.86-10.54v-26.52h16.31v26.52c0,1.25.25,2.34.75,3.28.5.94,1.19,1.66,2.06,2.16.88.5,1.91.75,3.09.75,1.75,0,3.17-.56,4.26-1.69s1.64-2.62,1.64-4.5v-26.52h16.31v26.52c0,4-.94,7.53-2.81,10.59-1.87,3.06-4.48,5.45-7.83,7.17s-7.2,2.58-11.57,2.58Z"/>
        <path class="cls-3" d="M320.65,845.76c-4.44,0-8.34-1.03-11.71-3.09-3.38-2.06-6.02-4.89-7.92-8.48-1.91-3.59-2.86-7.67-2.86-12.23s.95-8.75,2.86-12.37c1.9-3.62,4.53-6.45,7.87-8.48,3.34-2.03,7.26-3.05,11.76-3.05,2.87,0,5.56.52,8.06,1.55,2.5,1.03,4.59,2.48,6.28,4.36,1.69,1.87,2.69,4,3,6.37v22.4c-.31,2.38-1.31,4.56-3,6.56-1.69,2-3.78,3.58-6.28,4.73-2.5,1.16-5.19,1.73-8.06,1.73ZM323.55,831.23c1.81,0,3.37-.39,4.69-1.17,1.31-.78,2.36-1.88,3.14-3.28.78-1.41,1.17-3.05,1.17-4.92s-.37-3.41-1.12-4.78c-.75-1.37-1.8-2.47-3.14-3.28-1.34-.81-2.89-1.22-4.64-1.22s-3.3.41-4.64,1.22c-1.34.81-2.41,1.92-3.19,3.33-.78,1.41-1.17,2.98-1.17,4.73s.38,3.42,1.12,4.83c.75,1.41,1.81,2.52,3.19,3.33,1.38.81,2.91,1.22,4.59,1.22ZM347.92,844.82h-16.03v-12.28l2.34-11.25-2.62-11.06v-33.74h16.31v68.33Z"/>
        <path class="cls-3" d="M371.16,793.65c-2.44,0-4.47-.83-6.09-2.48-1.62-1.65-2.44-3.73-2.44-6.23s.81-4.5,2.44-6.19c1.62-1.69,3.65-2.53,6.09-2.53,2.56,0,4.64.84,6.23,2.53,1.59,1.69,2.39,3.75,2.39,6.19s-.8,4.58-2.39,6.23c-1.59,1.66-3.67,2.48-6.23,2.48ZM363.01,844.82v-45.83h16.4v45.83h-16.4Z"/>
        <path class="cls-3" d="M417.09,845.85c-4.94,0-9.33-1.05-13.17-3.14-3.84-2.09-6.89-4.97-9.14-8.62s-3.37-7.76-3.37-12.33,1.11-8.64,3.33-12.23c2.22-3.59,5.26-6.43,9.14-8.53,3.87-2.09,8.25-3.14,13.12-3.14s9.23,1.05,13.07,3.14c3.84,2.09,6.89,4.94,9.14,8.53,2.25,3.59,3.38,7.67,3.38,12.23s-1.11,8.67-3.33,12.33c-2.22,3.66-5.25,6.53-9.09,8.62-3.84,2.09-8.2,3.14-13.07,3.14ZM417,831.32c1.81,0,3.39-.39,4.73-1.17,1.34-.78,2.39-1.89,3.14-3.33.75-1.44,1.12-3.09,1.12-4.97s-.39-3.51-1.17-4.92c-.78-1.41-1.83-2.5-3.14-3.28-1.31-.78-2.88-1.17-4.69-1.17s-3.31.41-4.69,1.22c-1.38.81-2.44,1.92-3.19,3.33-.75,1.41-1.12,3.05-1.12,4.92s.38,3.44,1.12,4.87c.75,1.44,1.81,2.55,3.19,3.33,1.37.78,2.94,1.17,4.69,1.17Z"/>
      </g>
    </g>
    <g>
      <path class="cls-2" d="M710.74,651.76l5.14,1.43c12.09,1.81,18.14,5.43,18.14,10.85,0,1.52-.57,2.81-1.71,3.86-12.85,11.52-29.94,23.95-51.27,37.27-32.56,20.28-69.5,39.89-110.82,58.84,13.52,7.71,31.85,20.52,54.98,38.42,31.04,22.95,50.13,34.42,57.27,34.42,2.47,0,4.59-.69,6.36-2.07,1.76-1.38,2.73-2.07,2.93-2.07,1.62,0,2.43.76,2.43,2.29,0,1.33-1.6,5.14-4.79,11.42-3.19,6.28-5.9,10.42-8.14,12.42-2.24,2-5.78,3-10.64,3s-11.33-2.38-19.42-7.14c-8.09-4.76-16.92-10.73-26.49-17.92-9.57-7.19-19.12-14.5-28.63-21.92-24.09-18.57-40.32-29.56-48.7-32.99-29.32,46.27-44.39,70.22-45.2,71.83-.81,1.62-1.86,2.93-3.14,3.93-1.29,1-2.12,1.5-2.5,1.5l-6.14.86-5-.29c-1.34,0-2.29.21-2.86.64-.57.43-1.19.74-1.86.93-.67.19-1.24.5-1.71.93-.48.43-1.21.64-2.21.64s-2.38-.79-4.14-2.36c-1.76-1.57-2.64-2.93-2.64-4.07s.69-3.14,2.07-6c1.38-2.86,18.92-29.37,52.62-79.55h-2.71c-6.38,0-9.57-1.74-9.57-5.21s1.59-6.95,4.79-10.42c3.19-3.47,6.4-5.21,9.64-5.21s6.81.29,10.71.86c17.99-26.56,31.85-47.41,41.56-62.55-11.04,10.38-21.52,15.57-31.42,15.57-4.76,0-8.52-1.64-11.28-4.93-2.76-3.29-4.14-7.02-4.14-11.21s1.07-7.62,3.21-10.28c2.14-2.66,4.21-4.52,6.21-5.57,2-1.05,3.38-1.57,4.14-1.57s1.14.38,1.14,1.14l-1.14,3.43c0,1.33,2.05,2,6.14,2s9.8-2.26,17.14-6.78c7.33-4.52,14.52-9.04,21.56-13.57,7.04-4.52,12.33-6.78,15.85-6.78s5.83.41,6.93,1.21c1.09.81,2.09,1.33,3,1.57.9.24,1.64.6,2.21,1.07.57.48,1.05,1.07,1.43,1.79.38.71,1.09,1.5,2.14,2.36,1.05.86,1.57,2,1.57,3.43s-.38,2.76-1.14,4c-12.09,18.28-26.95,41.32-44.56,69.12,23.61-12.28,50.6-28.01,80.97-47.2,30.37-19.18,46.79-30.49,49.27-33.92.57-.95,1.38-1.43,2.43-1.43Z"/>
      <path class="cls-2" d="M822.67,750.01c7.23,0,10.86,2.48,10.86,7.43,0,2.67-.62,4.62-1.86,5.85s-3.88,5.36-7.93,12.35c-4.05,7-8.52,15.95-13.42,26.85-4.91,10.9-8.07,20.21-9.5,27.92-.29.95-.43,2.29-.43,4,0,5.24,1.43,7.85,4.28,7.85s6.24-1.36,10.14-4.07c3.9-2.71,7.38-5.62,10.43-8.71,3.04-3.09,6.02-6.26,8.93-9.5,2.9-3.24,4.64-5.09,5.21-5.57.57-.48,1.43-.71,2.57-.71,1.81,0,2.9,1.38,3.28,4.14.38,2.76.57,5.62.57,8.57s-.29,5-.86,6.14c-2.76,5.43-8.83,11.95-18.21,19.57-9.38,7.62-17.9,11.42-25.56,11.42s-13.31-2.33-16.92-7c-3.62-4.66-5.43-9.83-5.43-15.5s.95-10.64,2.86-14.92c-7.9,10.28-16.97,18.99-27.21,26.13-10.24,7.14-18.59,10.71-25.06,10.71s-11.76-1.95-15.85-5.85c-5.24-4.86-7.86-11.59-7.86-20.21s1.93-17.28,5.79-25.99c3.86-8.71,8.93-16.66,15.21-23.85,6.28-7.19,13.19-13.73,20.71-19.64,15.8-12.38,30.37-18.57,43.7-18.57,5.14,0,9.33.86,12.57,2.57,3.23,1.71,5.28,3.86,6.14,6.43,2.29-3.43,4.21-5.59,5.78-6.5,1.57-.9,3.93-1.36,7.07-1.36ZM803.68,765.86c-16.28,0-33.13,9.05-50.56,27.13-6.19,6.48-11.88,14.23-17.07,23.28-5.19,9.05-7.78,15.23-7.78,18.57s.95,5,2.86,5c2.66,0,10.09-5.26,22.28-15.78,12.19-10.52,20.28-18.25,24.28-23.21,4.38-5.52,13.04-17.18,25.99-34.99ZM821.39,721.16c-11.71,6.57-18.97,9.85-21.78,9.85s-4.21-1.24-4.21-3.71c0-.86.24-1.76.71-2.71,2.09-5.52,5.21-10.54,9.36-15.07,4.14-4.52,8.69-8.78,13.64-12.78,4.95-4,9.28-7.31,12.99-9.93,3.71-2.62,6.29-4.59,7.71-5.93,1.43-1.33,2.43-2.86,3-4.57.67-1.71,1.95-2.57,3.86-2.57s3.73,1.64,5.5,4.93c1.76,3.28,2.64,6.4,2.64,9.35,0,7.81-4,14.33-12,19.57-2.57,2.48-9.71,7-21.42,13.57Z"/>
    </g>
  </g>
  <g id="ICON">
    <g id="WOMAN">
      <circle class="cls-2" cx="461.6" cy="157.75" r="38.21"/>
      <path class="cls-2" d="M716.6,157.58c-12.67,11.1-23.94,20.65-37.3,28.91-40.02,26.18-82.92,47.1-129.94,58.23-11.97,2.7-24.17,4.98-36.42,6.64,10.03,8.52,26.51,23.48,35.04,47.76,13.16,37.32-.47,74.27-14.89,99.49,9.44,6.9,18.4,14.8,26.77,23.86,53.48,58.04,64.2,145.77,26.07,217.72,24.49-70.61,2.92-148.16-52.74-192.33-7.16-5.67-14.63-10.59-22.32-14.78-42.51,61.27-125.98,146.73-209.44,115.93-9.22-3.39-14.74-7.11-18.02-10.12,25.82,6.41,70.58-8.36,87.06-15.88,78.54-35.87,161.88-145.88,101.18-230.51-14.8-20.68-34.52-32.76-52.48-39.92-21.58-2.66-42.89-7.54-63.41-15.01-1.43-3.01-3.24-7.99-3.02-14.31.06-2.75.49-12.08,7.75-19.39,3.43-3.56,7.2-5.36,9.54-6.21.62-.21,2.58.59,3.33.74,1.28.32,2.6.59,3.94.85,2.48.58,5.03,1.11,7.57,1.6,4.83,1,9.71,2.01,14.53,2.86,5.2.96,10.39,1.85,15.59,2.87,64.35,8.9,130.57,4.71,193.7-10.88,22-5.67,43.36-12.87,64.56-21.36,14.53-5.71,28.11-10.68,43.36-16.74Z"/>
    </g>
    <g id="MAN">
      <circle class="cls-4" cx="571.69" cy="140.8" r="37.47"/>
      <path class="cls-4" d="M625.2,281.35c-1.53.85-3.11,1.7-4.71,2.55.05.15.11.26.15.43,10.56,28.46,1.98,53.91-1.58,62.75-3.19,7.96-7.32,14.8-11.99,20.68-1.11,1.43-2.28,2.86-3.49,4.18,16.49,14.8,35.25,33.82,44.75,53.5,6.09,12.66,26.61,56.61,19.45,111.89-.79,6.21-3.13,21.96-10.07,41.19-9.69,26.77-23.26,46.28-33.18,58.53,5.83-15.74,12.78-39.13,14.89-68.22,1.23-16.8,2.6-38.17-4.18-64.94-10.29-40.77-32.44-66.2-37.96-72.31-13.89-15.32-29.39-29-39.31-34.88,7.05-11.18,17.1-24.38,20.86-46.06.47-2.92.9-5.88,1.22-8.96.9-8.48,2.07-21.2-1.81-36.72-.15-.59-.32-1.17-.43-1.7-.05,0-.05-.05-.05-.05-3.66-13.48-9.91-24.6-12.78-29.54-1.75-2.96-3.28-5.41-4.56-7.37,12.09-4.13,24.71-8.9,37.7-14.53.15-.05.36-.15.53-.21,1.47-.62,2.96-1.26,4.5-1.96,41.09-18.17,75.12-39.43,102.52-59.79-5.18,9.59-12.93,22.47-23.86,36.63-10.33,13.46-26.07,37.85-56.61,54.91Z"/>
    </g>
  </g>
</svg>