<svg width="163" height="64" viewBox="0 0 163 64" fill="none" xmlns="http://www.w3.org/2000/svg">
<g clip-path="url(#clip0_1_3)">
<path d="M53.3843 21.5919V19.3609H62.2805V21.5919H53.3843ZM56.532 29.6316V19.4332H59.1292V29.6316H56.532Z" fill="white"/>
<path d="M65.0515 29.7781C64.3941 29.7781 63.8073 29.619 63.2947 29.3008C62.7822 28.9826 62.3801 28.5451 62.0903 27.9901C61.8005 27.435 61.6557 26.8041 61.6557 26.099C61.6557 25.3939 61.8005 24.7467 62.0903 24.1862C62.3801 23.6258 62.7822 23.1882 63.2947 22.8755C63.8073 22.5609 64.3922 22.4054 65.0515 22.4054C65.497 22.4054 65.9027 22.485 66.2704 22.6441C66.638 22.8032 66.9405 23.0273 67.1777 23.3184C67.415 23.6077 67.5581 23.9367 67.6052 24.3037V27.8671C67.5563 28.2432 67.4132 28.574 67.1777 28.8597C66.9405 29.1453 66.638 29.3695 66.2704 29.534C65.9027 29.6985 65.4952 29.7799 65.0515 29.7799V29.7781ZM65.5894 27.5308C66.0059 27.5308 66.341 27.3953 66.5982 27.1259C66.8554 26.8547 66.9821 26.5076 66.9821 26.0827C66.9821 25.8025 66.9242 25.5566 66.8083 25.3433C66.6924 25.1317 66.5294 24.9618 66.3229 24.8371C66.1146 24.7123 65.8755 24.649 65.6039 24.649C65.3322 24.649 65.0931 24.7123 64.8849 24.8371C64.6766 24.9618 64.5118 25.1336 64.3922 25.3505C64.2709 25.5675 64.2111 25.8115 64.2111 26.0827C64.2111 26.3539 64.2691 26.6106 64.385 26.8294C64.5009 27.0463 64.6657 27.2181 64.8776 27.3428C65.0895 27.4676 65.3268 27.5308 65.5894 27.5308ZM66.8807 29.6316V27.7333L67.2429 25.9941L66.8807 24.2838V22.5446H69.3619V29.628H66.8807V29.6316Z" fill="white"/>
<path d="M71.2781 29.6316V22.5482H73.8028V29.6316H71.2781ZM75.8783 29.6316V25.6325C75.8783 25.3035 75.7823 25.045 75.5885 24.8569C75.3948 24.6689 75.1484 24.5749 74.8478 24.5749C74.645 24.5749 74.4638 24.6183 74.3045 24.7051C74.1451 24.7919 74.0219 24.913 73.935 25.0667C73.8481 25.2221 73.8046 25.4102 73.8046 25.6325L72.8176 25.1697C72.8176 24.6002 72.9425 24.1103 73.1943 23.6999C73.446 23.2895 73.7919 22.9713 74.232 22.7435C74.6721 22.5175 75.172 22.4036 75.7334 22.4036C76.246 22.4036 76.7024 22.5211 77.1045 22.758C77.5065 22.9948 77.8235 23.3112 78.0553 23.7071C78.2871 24.1031 78.403 24.5532 78.403 25.054V29.6316H75.8783Z" fill="white"/>
<path d="M83.7585 29.7925C82.9652 29.7925 82.2643 29.6353 81.6539 29.3225C81.0436 29.0079 80.5655 28.5722 80.2177 28.0117C79.87 27.4513 79.6961 26.8095 79.6961 26.0845C79.6961 25.3595 79.8646 24.7358 80.2032 24.179C80.5419 23.624 81.0038 23.1846 81.5887 22.861C82.1737 22.5374 82.8348 22.3765 83.5701 22.3765C84.3054 22.3765 84.9212 22.5284 85.479 22.8321C86.035 23.1358 86.4697 23.5571 86.7848 24.0922C87.1 24.6273 87.2557 25.2384 87.2557 25.9254C87.2557 26.0701 87.2485 26.2183 87.234 26.3666C87.2195 26.5166 87.1887 26.6884 87.1398 26.88L80.8842 26.9089V25.2872L86.1383 25.2438L85.0063 25.9543C84.9973 25.5584 84.9393 25.233 84.8325 24.9763C84.7256 24.7195 84.5717 24.5243 84.3688 24.3887C84.166 24.2531 83.9088 24.1862 83.5991 24.1862C83.2894 24.1862 83.0032 24.264 82.7714 24.4176C82.5396 24.5713 82.3603 24.7901 82.2353 25.0703C82.1085 25.3505 82.047 25.6886 82.047 26.0845C82.047 26.4804 82.114 26.8348 82.2498 27.1204C82.3856 27.4061 82.5794 27.6194 82.8312 27.7659C83.0829 27.9105 83.3926 27.9828 83.7603 27.9828C84.108 27.9828 84.4159 27.925 84.6821 27.8093C84.9484 27.6936 85.1874 27.5146 85.4011 27.2741L86.7214 28.5921C86.3737 28.988 85.9499 29.2881 85.4518 29.4906C84.9538 29.6931 84.3905 29.7943 83.7603 29.7943L83.7585 29.7925Z" fill="white"/>
<path d="M92.1602 29.7925C91.405 29.7925 90.7258 29.6334 90.1209 29.3153C89.516 28.9971 89.0397 28.5577 88.6919 27.9973C88.3442 27.4368 88.1703 26.8041 88.1703 26.099C88.1703 25.3939 88.346 24.7467 88.6992 24.1862C89.0523 23.6258 89.5305 23.1846 90.1354 22.861C90.7403 22.5374 91.4249 22.3765 92.1892 22.3765C92.7398 22.3765 93.2432 22.4687 93.6978 22.6513C94.1524 22.8357 94.569 23.1105 94.9457 23.4775L93.3501 25.0703C93.2052 24.9256 93.0386 24.8172 92.8502 24.7449C92.6619 24.6725 92.4409 24.6364 92.1892 24.6364C91.9175 24.6364 91.6748 24.696 91.4557 24.8172C91.2383 24.9383 91.0645 25.1046 90.9341 25.3162C90.8037 25.5295 90.7385 25.7844 90.7385 26.0845C90.7385 26.3846 90.8037 26.6269 90.9341 26.8457C91.0645 27.0626 91.2383 27.2344 91.4557 27.3591C91.673 27.4838 91.9175 27.5471 92.1892 27.5471C92.4608 27.5471 92.6927 27.5037 92.8864 27.4169C93.0802 27.3302 93.2487 27.2054 93.3936 27.0409L95.0036 28.6337C94.607 29.0206 94.1778 29.3098 93.7196 29.5033C93.2595 29.6967 92.7397 29.7925 92.1602 29.7925ZM94.2067 18.8258L94.933 19.8979L92.7416 21.9263H91.4213L89.2298 19.8979L89.9561 18.8258L93.0766 20.5071H91.088L94.2086 18.8258H94.2067Z" fill="white"/>
<path d="M96.3547 29.6316V22.5482H98.8794V29.6316H96.3547ZM100.955 29.6316V25.6325C100.955 25.3035 100.859 25.045 100.665 24.8569C100.471 24.6689 100.225 24.5749 99.9244 24.5749C99.7216 24.5749 99.5405 24.6183 99.3811 24.7051C99.2217 24.7919 99.0986 24.913 99.0116 25.0667C98.9247 25.2221 98.8812 25.4102 98.8812 25.6325L97.8942 25.1697C97.8942 24.6002 98.0191 24.1103 98.2709 23.6999C98.5226 23.2895 98.8686 22.9713 99.3087 22.7435C99.7488 22.5175 100.249 22.4036 100.81 22.4036C101.323 22.4036 101.779 22.5211 102.181 22.758C102.583 22.9948 102.9 23.3112 103.132 23.7071C103.364 24.1031 103.48 24.5532 103.48 25.054V29.6316H100.955Z" fill="white"/>
<path d="M105.352 21.8667L104.626 20.621L107.165 18.5636L108.37 20.5342L105.351 21.8667H105.352ZM105.251 29.6316V22.5482H107.776V29.6316H105.251Z" fill="white"/>
<path d="M56.561 46.3403C56.1263 46.3403 55.6971 46.2825 55.2769 46.1668C54.8567 46.0511 54.4637 45.8938 54.1015 45.6967C53.7393 45.4997 53.4314 45.2701 53.1797 45.0079L54.5579 43.6032C54.7897 43.8454 55.0686 44.0334 55.3928 44.169C55.717 44.3046 56.0629 44.3715 56.4306 44.3715C56.6425 44.3715 56.8055 44.3426 56.916 44.2847C57.0265 44.2269 57.0826 44.1455 57.0826 44.0389C57.0826 43.8852 57.0029 43.7659 56.8435 43.6845C56.6842 43.6032 56.4759 43.5308 56.2187 43.4676C55.9615 43.4043 55.6935 43.3284 55.4128 43.2362C55.132 43.144 54.8622 43.021 54.5996 42.8673C54.337 42.7137 54.1287 42.4949 53.9675 42.2147C53.8081 41.9345 53.7284 41.5765 53.7284 41.1426C53.7284 40.7087 53.8516 40.2911 54.0979 39.9476C54.3442 39.6041 54.6901 39.3347 55.1357 39.1358C55.5812 38.9388 56.1028 38.8393 56.7023 38.8393C57.3017 38.8393 57.8922 38.9442 58.4446 39.1503C58.9951 39.3582 59.4407 39.6692 59.7793 40.085L58.3866 41.4897C58.1548 41.2294 57.8976 41.0486 57.6169 40.9473C57.3362 40.8461 57.0808 40.7955 56.8472 40.7955C56.6135 40.7955 56.465 40.8262 56.369 40.8895C56.273 40.9528 56.2241 41.0377 56.2241 41.1426C56.2241 41.2692 56.3038 41.3704 56.4632 41.4463C56.6226 41.5241 56.8309 41.5946 57.088 41.656C57.3452 41.7193 57.6096 41.7989 57.8867 41.8947C58.162 41.9905 58.4283 42.1243 58.6854 42.2924C58.9426 42.4624 59.1491 42.6866 59.3103 42.9668C59.4696 43.247 59.5493 43.6086 59.5493 44.0533C59.5493 44.7584 59.2777 45.3171 58.7361 45.7257C58.1946 46.136 57.4684 46.3421 56.5592 46.3421L56.561 46.3403Z" fill="white"/>
<path d="M60.9729 41.1534V39.0527H66.6326V41.1534H60.9729ZM62.5413 46.1379V36.1275H65.066V46.1379H62.5413Z" fill="white"/>
<path d="M71.6403 46.2969C70.972 46.2969 70.3798 46.1632 69.8618 45.8992C69.3438 45.6334 68.9381 45.261 68.6429 44.7837C68.3477 44.3064 68.201 43.7623 68.201 43.1548V39.0545H70.7257V43.1548C70.7257 43.3483 70.7637 43.5164 70.8416 43.661C70.9195 43.8057 71.0245 43.9177 71.1604 43.9937C71.2962 44.0714 71.4556 44.1094 71.6385 44.1094C71.9102 44.1094 72.1293 44.0226 72.2996 43.849C72.468 43.6755 72.5531 43.4441 72.5531 43.153V39.0527H75.0778V43.153C75.0778 43.7713 74.9329 44.3173 74.6431 44.7892C74.3534 45.2628 73.9495 45.6316 73.4315 45.8974C72.9135 46.1632 72.3159 46.2951 71.6385 46.2951L71.6403 46.2969Z" fill="white"/>
<path d="M80.2902 46.2825C79.6038 46.2825 78.9988 46.1234 78.4754 45.8052C77.952 45.487 77.5445 45.0495 77.2493 44.4945C76.9541 43.9394 76.8074 43.3085 76.8074 42.6034C76.8074 41.8983 76.9541 41.2511 77.2493 40.6906C77.5445 40.1302 77.9502 39.6945 78.4682 39.3799C78.9862 39.0653 79.5929 38.9098 80.2902 38.9098C80.7357 38.9098 81.1504 38.9894 81.538 39.1485C81.9256 39.3076 82.2498 39.5318 82.5106 39.8228C82.7714 40.1139 82.9272 40.4411 82.9742 40.8081V44.2703C82.9253 44.6373 82.7714 44.9754 82.5106 45.2845C82.2498 45.5937 81.9256 45.8377 81.538 46.0167C81.1504 46.1957 80.7357 46.2843 80.2902 46.2843V46.2825ZM80.7393 44.0371C81.02 44.0371 81.2609 43.9774 81.4656 43.8563C81.6684 43.7351 81.8314 43.567 81.951 43.3501C82.0723 43.1331 82.1321 42.88 82.1321 42.5889C82.1321 42.2979 82.0741 42.0628 81.9582 41.8495C81.8423 41.638 81.6793 41.468 81.4728 41.3433C81.2645 41.2185 81.0255 41.1553 80.7538 41.1553C80.4821 41.1553 80.2431 41.2185 80.0348 41.3433C79.8265 41.468 79.6617 41.6398 79.5422 41.8567C79.4226 42.0737 79.3611 42.3177 79.3611 42.5889C79.3611 42.8601 79.419 43.1168 79.5349 43.3356C79.6508 43.5525 79.8157 43.7243 80.0276 43.849C80.2395 43.9756 80.4767 44.0371 80.7393 44.0371ZM84.5137 46.1379H82.0325V44.2396L82.3947 42.5003L81.989 40.7901V35.5742H84.5137V46.136V46.1379Z" fill="white"/>
<path d="M88.1124 38.2283C87.7356 38.2283 87.4205 38.0999 87.1688 37.845C86.917 37.5882 86.7921 37.2682 86.7921 36.8814C86.7921 36.4945 86.917 36.1853 87.1688 35.925C87.4205 35.6646 87.7338 35.5345 88.1124 35.5345C88.509 35.5345 88.8314 35.6646 89.0777 35.925C89.324 36.1853 89.4471 36.5053 89.4471 36.8814C89.4471 37.2574 89.324 37.5882 89.0777 37.845C88.8314 38.1017 88.509 38.2283 88.1124 38.2283ZM86.85 46.1379V39.0545H89.3892V46.1379H86.85Z" fill="white"/>
<path d="M95.2228 46.2969C94.4585 46.2969 93.7793 46.136 93.1835 45.8124C92.5876 45.4888 92.1167 45.0441 91.769 44.48C91.4213 43.9159 91.2474 43.2795 91.2474 42.5745C91.2474 41.8694 91.4195 41.2402 91.7618 40.6834C92.1059 40.1284 92.5768 39.689 93.1762 39.3654C93.7757 39.0418 94.4531 38.8809 95.2083 38.8809C95.9635 38.8809 96.6373 39.0418 97.2331 39.3654C97.829 39.689 98.2999 40.1284 98.6476 40.6834C98.9953 41.2384 99.1692 41.8694 99.1692 42.5745C99.1692 43.2795 98.9971 43.9141 98.6548 44.48C98.3107 45.0441 97.8417 45.4888 97.2476 45.8124C96.6518 46.136 95.978 46.2969 95.2228 46.2969ZM95.2083 44.0515C95.489 44.0515 95.7335 43.9919 95.9418 43.8707C96.1501 43.7496 96.3113 43.5797 96.4272 43.3573C96.5431 43.1349 96.601 42.88 96.601 42.5889C96.601 42.2979 96.5413 42.0466 96.4199 41.8278C96.2986 41.6108 96.1374 41.4409 95.9346 41.3216C95.7317 41.2005 95.489 41.1408 95.2083 41.1408C94.9276 41.1408 94.6958 41.2041 94.482 41.3288C94.2683 41.4536 94.1053 41.6253 93.9894 41.8423C93.8735 42.0592 93.8156 42.3123 93.8156 42.6034C93.8156 42.8945 93.8735 43.1349 93.9894 43.3573C94.1053 43.5797 94.2701 43.7514 94.482 43.8707C94.6939 43.9919 94.9366 44.0515 95.2083 44.0515Z" fill="white"/>
<path d="M140.693 16.2965L141.489 16.5171C143.362 16.7973 144.298 17.3559 144.298 18.1948C144.298 18.4298 144.21 18.6287 144.034 18.7914C142.044 20.5722 139.398 22.4922 136.096 24.5532C131.054 27.6881 125.334 30.72 118.936 33.647C121.029 34.8384 123.867 36.8181 127.45 39.5842C132.256 43.1313 135.212 44.9049 136.317 44.9049C136.701 44.9049 137.029 44.7982 137.3 44.5849C137.572 44.3715 137.724 44.2649 137.753 44.2649C138.003 44.2649 138.13 44.3824 138.13 44.6174C138.13 44.8235 137.884 45.4129 137.389 46.3837C136.895 47.3546 136.474 47.9946 136.129 48.3037C135.783 48.6129 135.234 48.7666 134.48 48.7666C133.727 48.7666 132.725 48.3977 131.472 47.6619C130.219 46.9261 128.852 46.0023 127.37 44.8922C125.889 43.7821 124.411 42.6522 122.936 41.5042C119.207 38.635 116.694 36.9356 115.395 36.4059C110.855 43.558 108.522 47.2588 108.397 47.5101C108.272 47.7595 108.109 47.962 107.91 48.1175C107.71 48.273 107.582 48.3489 107.522 48.3489L106.571 48.4809L105.798 48.4375C105.591 48.4375 105.445 48.4701 105.356 48.5369C105.267 48.6038 105.171 48.6508 105.068 48.6798C104.965 48.7087 104.876 48.7575 104.804 48.8226C104.729 48.8895 104.615 48.922 104.461 48.922C104.307 48.922 104.092 48.8009 103.82 48.5586C103.547 48.3164 103.411 48.1067 103.411 47.9295C103.411 47.7523 103.518 47.4432 103.731 47.002C103.945 46.5609 106.662 42.4624 111.88 34.7064H111.459C110.472 34.7064 109.978 34.4389 109.978 33.9001C109.978 33.3614 110.224 32.8262 110.719 32.2893C111.213 31.7523 111.709 31.4829 112.211 31.4829C112.713 31.4829 113.265 31.5263 113.87 31.6149C116.655 27.5092 118.802 24.2857 120.305 21.9462C118.595 23.5498 116.972 24.3525 115.44 24.3525C114.703 24.3525 114.12 24.0994 113.693 23.5914C113.265 23.0834 113.051 22.5067 113.051 21.8594C113.051 21.2122 113.218 20.6825 113.549 20.2703C113.881 19.8581 114.201 19.5706 114.511 19.4097C114.821 19.2488 115.035 19.1675 115.152 19.1675C115.27 19.1675 115.33 19.2271 115.33 19.3446L115.152 19.8744C115.152 20.0805 115.469 20.1835 116.103 20.1835C116.737 20.1835 117.621 19.8346 118.756 19.1349C119.892 18.4353 121.004 17.7374 122.096 17.0377C123.186 16.3381 124.005 15.9892 124.55 15.9892C125.095 15.9892 125.454 16.0524 125.622 16.1772C125.791 16.3019 125.946 16.3833 126.086 16.4194C126.225 16.4556 126.339 16.5116 126.428 16.5858C126.517 16.6599 126.589 16.7521 126.649 16.8624C126.707 16.9727 126.818 17.0938 126.981 17.2258C127.142 17.3577 127.223 17.5349 127.223 17.7555C127.223 17.976 127.164 18.1821 127.046 18.3738C125.173 21.1996 122.873 24.7611 120.147 29.0585C123.804 27.1602 127.982 24.7286 132.686 21.7636C137.387 18.7986 139.932 17.0504 140.314 16.5207C140.403 16.3742 140.528 16.3001 140.691 16.3001L140.693 16.2965Z" fill="#FF8931"/>
<path d="M158.025 31.4829C159.146 31.4829 159.706 31.8662 159.706 32.631C159.706 33.0432 159.61 33.3451 159.418 33.5367C159.226 33.7284 158.816 34.3647 158.19 35.4459C157.563 36.527 156.869 37.9101 156.111 39.595C155.352 41.28 154.861 42.7191 154.64 43.9105C154.596 44.0588 154.573 44.2631 154.573 44.5288C154.573 45.3388 154.794 45.7437 155.236 45.7437C155.678 45.7437 156.201 45.534 156.806 45.1146C157.411 44.6951 157.949 44.2468 158.42 43.7677C158.891 43.2904 159.352 42.8005 159.802 42.2997C160.251 41.7989 160.521 41.5132 160.609 41.4391C160.698 41.365 160.83 41.3288 161.008 41.3288C161.289 41.3288 161.457 41.5422 161.517 41.9688C161.575 42.3955 161.605 42.8366 161.605 43.294C161.605 43.7514 161.562 44.066 161.473 44.2432C161.046 45.082 160.106 46.0909 158.653 47.2678C157.201 48.4448 155.882 49.0341 154.694 49.0341C153.506 49.0341 152.633 48.6725 152.074 47.953C151.514 47.2316 151.233 46.4344 151.233 45.5575C151.233 44.6807 151.38 43.9123 151.675 43.2506C150.451 44.8398 149.047 46.1867 147.462 47.2895C145.878 48.3923 144.585 48.9455 143.581 48.9455C142.578 48.9455 141.761 48.6436 141.127 48.0398C140.316 47.2895 139.91 46.2481 139.91 44.9157C139.91 43.5833 140.209 42.2454 140.807 40.8985C141.404 39.5516 142.189 38.3241 143.161 37.2122C144.134 36.1021 145.202 35.0897 146.367 34.1767C148.814 32.264 151.068 31.3076 153.133 31.3076C153.93 31.3076 154.578 31.4396 155.08 31.7053C155.582 31.9693 155.899 32.3019 156.031 32.6979C156.384 32.1681 156.683 31.8337 156.926 31.6927C157.168 31.5535 157.534 31.4829 158.019 31.4829H158.025ZM155.084 33.9327C152.563 33.9327 149.953 35.3302 147.256 38.127C146.298 39.1286 145.416 40.3272 144.614 41.7248C143.809 43.1223 143.409 44.0786 143.409 44.5939C143.409 45.1092 143.556 45.3659 143.851 45.3659C144.264 45.3659 145.414 44.5523 147.301 42.927C149.188 41.3017 150.442 40.1049 151.061 39.3401C151.739 38.4868 153.081 36.6843 155.085 33.9327H155.084ZM157.826 27.0246C156.013 28.0407 154.888 28.5469 154.453 28.5469C154.019 28.5469 153.801 28.3553 153.801 27.9738C153.801 27.8418 153.838 27.7008 153.912 27.5544C154.236 26.701 154.72 25.9254 155.361 25.2258C156.002 24.5261 156.706 23.868 157.472 23.2497C158.239 22.6314 158.911 22.1198 159.485 21.7148C160.059 21.3098 160.457 21.0043 160.678 20.7982C160.899 20.5921 161.055 20.3571 161.142 20.0913C161.245 19.8255 161.444 19.6936 161.739 19.6936C162.035 19.6936 162.317 19.9467 162.591 20.4547C162.862 20.9627 163 21.4454 163 21.901C163 23.1087 162.381 24.1157 161.142 24.9257C160.743 25.3089 159.639 26.0068 157.826 27.0228V27.0246Z" fill="#FF8931"/>
<path d="M21.2751 11.0481C23.7947 11.0481 25.8373 9.00918 25.8373 6.49401C25.8373 3.97883 23.7947 1.93988 21.2751 1.93988C18.7555 1.93988 16.7129 3.97883 16.7129 6.49401C16.7129 9.00918 18.7555 11.0481 21.2751 11.0481Z" fill="#FF8931"/>
<path d="M51.7199 6.47412C50.2076 7.79751 48.862 8.93469 47.2664 9.92C42.4887 13.0404 37.3668 15.5336 31.7524 16.8588C30.3234 17.1806 28.8655 17.4536 27.4039 17.6506C28.6011 18.6667 30.5697 20.4493 31.5876 23.3419C33.1578 27.7894 31.5314 32.1934 29.8091 35.2C30.9356 36.0226 32.0059 36.9645 33.0057 38.0438C39.3917 44.9609 40.6703 55.4178 36.119 63.9928C39.0439 55.5769 36.4667 46.3349 29.8217 41.0703C28.9669 40.3941 28.074 39.8084 27.1558 39.3094C22.0811 46.6115 12.1145 56.7955 2.14978 53.1254C1.04863 52.7223 0.389384 52.2775 -0.0018158 51.9195C3.0807 52.6843 8.42528 50.9234 10.3921 50.0267C19.7701 45.751 29.7185 32.64 22.4723 22.5537C20.7046 20.0895 18.3502 18.6486 16.2058 17.7971C13.6304 17.4807 11.084 16.8985 8.63537 16.0072C8.46513 15.6493 8.24961 15.0545 8.27496 14.3006C8.28221 13.9733 8.33292 12.8615 9.20044 11.9901C9.60975 11.567 10.0607 11.3501 10.3396 11.2488C10.4139 11.2235 10.6475 11.3193 10.7363 11.3374C10.8884 11.3754 11.046 11.4079 11.2053 11.4386C11.5006 11.5073 11.8066 11.5706 12.1091 11.6285C12.6868 11.7478 13.2682 11.8671 13.8441 11.9684C14.4653 12.0823 15.0847 12.1889 15.7059 12.3101C23.3887 13.3713 31.2942 12.8723 38.832 11.0138C41.4581 10.3376 44.01 9.48067 46.5401 8.46824C48.2752 7.78666 49.8961 7.19548 51.7181 6.47231L51.7199 6.47412Z" fill="#FF8931"/>
<path d="M34.4183 8.94011C36.889 8.94011 38.8918 6.94082 38.8918 4.47457C38.8918 2.00833 36.889 0.00903702 34.4183 0.00903702C31.9477 0.00903702 29.9449 2.00833 29.9449 4.47457C29.9449 6.94082 31.9477 8.94011 34.4183 8.94011Z" fill="#0062D8"/>
<path d="M40.8079 21.2249C40.625 21.3261 40.4367 21.4273 40.2447 21.5286C40.2501 21.5467 40.2574 21.5593 40.2628 21.5792C41.5233 24.9708 40.4982 28.0045 40.0744 29.0585C39.6941 30.0077 39.1997 30.823 38.6437 31.5227C38.5115 31.6927 38.372 31.8626 38.2271 32.0199C40.1958 33.7844 42.4361 36.0515 43.5699 38.3964C44.298 39.9042 46.7466 45.1435 45.8917 51.7315C45.7976 52.4728 45.5186 54.3476 44.6892 56.64C43.5319 59.831 41.9109 62.1559 40.7264 63.6149C41.4237 61.7383 42.2514 58.9523 42.505 55.4847C42.6517 53.4816 42.8147 50.936 42.0069 47.7451C40.779 42.8872 38.1329 39.8554 37.4755 39.1268C35.8165 37.3008 33.9674 35.6701 32.7829 34.9704C33.6251 33.638 34.824 32.0651 35.2732 29.4816C35.3293 29.1345 35.38 28.7801 35.4181 28.4131C35.5249 27.4025 35.6644 25.8875 35.2026 24.0362C35.1844 23.9656 35.1645 23.8969 35.1518 23.8337C35.1464 23.8337 35.1464 23.8282 35.1464 23.8282C34.7099 22.2228 33.9638 20.8958 33.6215 20.3082C33.4132 19.9557 33.2303 19.6628 33.0781 19.4296C34.5216 18.9378 36.0284 18.3684 37.5787 17.6976C37.5968 17.6922 37.6222 17.6795 37.6421 17.6723C37.8178 17.5982 37.9953 17.5223 38.1782 17.4391C43.0827 15.2732 47.1468 12.7403 50.4177 10.3141C49.7983 11.4567 48.8746 12.9916 47.5688 14.6802C46.3355 16.2838 44.4555 19.191 40.8098 21.2249H40.8079Z" fill="#0062D8"/>
</g>
<defs>
<clipPath id="clip0_1_3">
<rect width="163" height="64" fill="white"/>
</clipPath>
</defs>
</svg>
