<svg width="16" height="16" viewBox="0 0 16 16" fill="none" xmlns="http://www.w3.org/2000/svg">
<g clip-path="url(#clip0_25_35)">
<path d="M6.85535 2.76024C7.48447 2.76024 7.99448 2.25024 7.99448 1.62112C7.99448 0.991997 7.48447 0.481995 6.85535 0.481995C6.22623 0.481995 5.71623 0.991997 5.71623 1.62112C5.71623 2.25024 6.22623 2.76024 6.85535 2.76024Z" fill="#FF8931"/>
<path d="M14.4556 1.6161C14.0777 1.9468 13.742 2.23148 13.3438 2.47795C12.1509 3.25829 10.8725 3.88186 9.47095 4.21334C9.11412 4.29407 8.75027 4.36193 8.38525 4.41106C8.68398 4.66494 9.17535 5.11068 9.42961 5.83448C9.82193 6.94669 9.41557 8.04799 8.98582 8.79986C9.26699 9.00538 9.53413 9.24093 9.78371 9.51079C11.3779 11.2407 11.6969 13.8555 10.5609 16C11.291 13.8957 10.6479 11.5839 8.98894 10.2673C8.77562 10.0985 8.55294 9.95185 8.32364 9.82667C7.0566 11.6529 4.56855 14.1999 2.08128 13.2819C1.80635 13.1809 1.64217 13.0701 1.54428 12.9804C2.31371 13.1715 3.64782 12.7312 4.13919 12.507C6.48022 11.4377 8.96398 8.15874 7.15488 5.63637C6.71381 5.01982 6.12612 4.65987 5.59068 4.44655C4.94761 4.36739 4.31234 4.22192 3.70085 3.99925C3.65834 3.90955 3.60453 3.76097 3.61077 3.57261C3.61272 3.49072 3.6252 3.21266 3.84163 2.99467C3.94381 2.88859 4.05612 2.83478 4.12593 2.80943C4.14465 2.80319 4.20275 2.82698 4.22498 2.83166C4.2632 2.84102 4.30259 2.84921 4.34236 2.85701C4.41607 2.87416 4.49212 2.89015 4.56777 2.90458C4.71167 2.93461 4.85713 2.96425 5.00065 2.9896C5.15547 3.01807 5.31029 3.04497 5.46511 3.075C7.38301 3.34058 9.35669 3.21539 11.2383 2.75093C11.8943 2.58207 12.5307 2.36719 13.1625 2.1141C13.5953 1.94368 14.0001 1.79588 14.4549 1.61493L14.4556 1.6161Z" fill="#FF8931"/>
<path d="M10.1367 2.23264C10.7533 2.23264 11.2532 1.73277 11.2532 1.11614C11.2532 0.49951 10.7533 -0.000366211 10.1367 -0.000366211C9.52003 -0.000366211 9.02016 0.49951 9.02016 1.11614C9.02016 1.73277 9.52003 2.23264 10.1367 2.23264Z" fill="#0062D8"/>
<path d="M11.7317 5.30524C11.6861 5.33059 11.6389 5.35594 11.5913 5.38129C11.5925 5.38597 11.5944 5.38909 11.596 5.39416C11.9107 6.24236 11.6549 7.00086 11.5488 7.26449C11.4536 7.50198 11.3304 7.70555 11.1916 7.88104C11.1584 7.92355 11.1237 7.96605 11.0875 8.00544C11.5788 8.44651 12.1381 9.01353 12.4212 9.60006C12.6029 9.97716 13.214 11.2875 13.0007 12.9351C12.9773 13.1204 12.9075 13.5895 12.7004 14.1628C12.4114 14.9607 12.007 15.5421 11.7114 15.9072C11.8853 15.438 12.0924 14.7411 12.1552 13.8738C12.1919 13.3731 12.2328 12.7363 12.0308 11.9384C11.7243 10.7232 11.0641 9.96508 10.8995 9.78296C10.4857 9.32629 10.0236 8.91877 9.728 8.74328C9.93819 8.40985 10.2377 8.01675 10.35 7.37056C10.364 7.2836 10.3769 7.19546 10.3863 7.10343C10.4132 6.85072 10.4479 6.47166 10.3325 6.00876C10.3278 5.99121 10.3231 5.97405 10.3196 5.95806C10.3184 5.95806 10.3184 5.95689 10.3184 5.95689C10.2092 5.55522 10.0232 5.22374 9.93741 5.07633C9.88516 4.98819 9.83953 4.91527 9.8017 4.85677C10.162 4.73354 10.538 4.5912 10.9252 4.4239C10.9299 4.42273 10.9361 4.41922 10.9412 4.41766C10.9853 4.39894 11.0293 4.38022 11.0754 4.35916C12.2999 3.81748 13.3142 3.18377 14.1308 2.57697C13.9764 2.86282 13.7455 3.24695 13.4199 3.6689C13.1118 4.07019 12.6427 4.7971 11.7325 5.30563L11.7317 5.30524Z" fill="#0062D8"/>
</g>
<defs>
<clipPath id="clip0_25_35">
<rect width="16" height="16" fill="white"/>
</clipPath>
</defs>
</svg>
