<svg id="Layer_1" data-name="Layer 1" xmlns="http://www.w3.org/2000/svg" viewBox="0 0 394.0441 80.4225">
  <g>
    <g>
      <path id="fullLogo" d="M139.4969,38.506V31.6667a21.9269,21.9269,0,0,0-3.7539-.3353q-5.1719,0-7.2139,3.0035-2.0451,3.0025-2.0441,9.5075,0,6.5081,2.1269,9.6347t7.4654,3.1268a42.0564,42.0564,0,0,0,10.9254-1.5008L148.254,63.11a45.32,45.32,0,0,1-12.511,1.6684q-18.5149,0-18.515-20.851,0-10.7618,4.2114-15.7225,4.2114-4.9627,14.0542-4.9628A46.291,46.291,0,0,1,147.67,24.8275V38.506Z" style="fill: #27251f"/>
      <path id="fullLogo-2" data-name="fullLogo" d="M161.18,28.4551q4.2539-5.0475,13.0948-5.0455,8.8393,0,13.0947,5.0455,4.2539,5.0476,4.2538,15.555,0,10.51-4.2538,15.64-4.2539,5.1264-13.0947,5.1284-8.841,0-13.0948-5.1284-4.2522-5.1324-4.2528-15.64Q156.9267,33.5,161.18,28.4551Zm6.715,5.9627q-1.7118,2.9206-1.71,9.5923,0,6.6746,1.7512,9.6751,1.7512,3.0024,6.3384,3.0035t6.3393-3.0035q1.7511-3.0025,1.7512-9.6751t-1.71-9.5923q-1.71-2.9178-6.3807-2.9187Q169.6023,31.4991,167.8945,34.4178Z" style="fill: #27251f"/>
      <path id="fullLogo-3" data-name="fullLogo" d="M212.3925,64.6106q-13.3448,0-13.3452-12.6766,0-6.7565,4.2962-9.4671,4.2948-2.7087,11.8849-2.7107,3.5857,0,8.1733.4182,0-5.0052-1.4179-6.8393-1.4179-1.836-4.92-1.836a47.3287,47.3287,0,0,0-8.1743.8342,54.415,54.415,0,0,0-7.1725,1.6684l-1.5846-7.9239A58.48,58.48,0,0,1,217.23,23.41q8.3394,0,11.5515,3.668,3.21,3.6721,3.2116,12.4282V56.4382l.917,7.34-8.59.8322-.8342-3.8357Q216.4792,64.6136,212.3925,64.6106Zm1.3341-8.09a14.6238,14.6238,0,0,0,5.1719-1.0846,16.8728,16.8728,0,0,0,4.5032-2.42V47.1792q-5.0037-.4181-8.1733-.4161-6.9246,0-6.9231,5.1709Q208.3053,56.521,213.7266,56.521Z" style="fill: #27251f"/>
      <path id="fullLogo-4" data-name="fullLogo" d="M241.082,63.6935V56.02h12.4271V15.8189l-10.7587.0849-.0838-7.5906,19.434-.0849V56.02h11.76v7.6734Z" style="fill: #27251f"/>
      <path id="fullLogo-5" data-name="fullLogo" d="M281.278,63.6935V56.02h12.4272V31.75H281.9446V24.0761h20.3511V56.02h11.7606v7.6734Zm16.3053-45.372a5.2461,5.2461,0,0,1-4.0033-1.5431,5.6429,5.6429,0,0,1-1.4594-4.0458,5.4113,5.4113,0,0,1,1.5008-4.0034,5.4624,5.4624,0,0,1,4.0458-1.5007,5.1266,5.1266,0,0,1,3.92,1.46,5.662,5.662,0,0,1,1.3765,4.0438,5.7178,5.7178,0,0,1-1.4179,4.0882A5.1922,5.1922,0,0,1,297.5833,18.3215Z" style="fill: #27251f"/>
      <path id="fullLogo-6" data-name="fullLogo" d="M324.3192,28.4551q4.2538-5.0475,13.0947-5.0455,8.8395,0,13.0948,5.0455,4.2537,5.0476,4.2538,15.555,0,10.51-4.2538,15.64-4.2538,5.1264-13.0948,5.1284-8.8409,0-13.0947-5.1284-4.2522-5.1324-4.2528-15.64Q320.0664,33.5,324.3192,28.4551Zm6.715,5.9627q-1.7118,2.9206-1.71,9.5923,0,6.6746,1.7512,9.6751,1.7513,3.0024,6.3383,3.0035t6.3394-3.0035q1.7511-3.0025,1.7512-9.6751t-1.71-9.5923q-1.71-2.9178-6.3808-2.9187T331.0342,34.4178Z" style="fill: #27251f"/>
      <path id="fullLogo-7" data-name="fullLogo" d="M362.9343,61.86l1.835-7.5906q7.9228,2.5026,12.5938,2.5006,4.67,0,6.3393-.917A3.0545,3.0545,0,0,0,385.37,52.851a3.3308,3.3308,0,0,0-1.5007-3.0864,22.1954,22.1954,0,0,0-5.6718-1.9188q-8.2576-2-11.51-4.4619-3.2525-2.4571-3.253-8.0491,0-11.9253,15.3469-11.9252a63.9521,63.9521,0,0,1,15.263,2.1693L392.46,33.5007q-8.2576-2.3328-12.7614-2.3349-4.5038,0-6.0465.7918a2.7981,2.7981,0,0,0-1.5431,2.7106,2.9784,2.9784,0,0,0,1.5431,2.7955,46.4621,46.4621,0,0,0,7.9653,2.6258q6.4217,1.7512,9.4247,4.0458t3.0025,7.7987q0,12.5918-15.5135,12.5937A51.3179,51.3179,0,0,1,362.9343,61.86Z" style="fill: #27251f"/>
    </g>
    <path id="logoMark" d="M0,0V80.4225H80.4223V0ZM54.2825,69.41H10.0133V27.1431H20.0258V59.3958H54.2825Zm0-32.2526V52.1085H44.27V37.1576H29.3149V27.1431H54.2825Zm16.1266-16.13v31.08H60.3967v-31.08H29.3149V11.0131H70.4091Z" style="fill: #ff9e1b"/>
  </g>
</svg>
