<?xml version="1.0" encoding="utf-8"?>
<!-- Generator: Adobe Illustrator 28.2.0, SVG Export Plug-In . SVG Version: 6.00 Build 0)  -->
<svg version="1.1" id="Layer_1" xmlns="http://www.w3.org/2000/svg" xmlns:xlink="http://www.w3.org/1999/xlink" x="0px" y="0px"
	 viewBox="0 0 439.7 80.4" style="enable-background:new 0 0 439.7 80.4;" xml:space="preserve">
<style type="text/css">
	.st0{fill:#D8DAE0;}
	.st1{fill:#00B5E2;}
</style>
<g>
	<path id="fullLogo" class="st0" d="M140.1,38.5v-6.9c-1.3-0.2-2.5-0.3-3.8-0.3c-3.5,0-5.9,1-7.3,3c-1.4,2-2.1,5.2-2.1,9.6
		c0,4.4,0.7,7.6,2.1,9.7c1.4,2.1,3.9,3.2,7.5,3.2c3.7,0,7.4-0.5,11-1.5l1.3,8.1c-4.1,1.1-8.4,1.7-12.6,1.7c-12.5,0-18.7-7-18.7-21.1
		c0-7.2,1.4-12.5,4.3-15.9c2.8-3.3,7.6-5,14.2-5c4.2,0,8.3,0.5,12.3,1.6v13.8H140.1z"/>
	<path id="fullLogo-2" class="st0" d="M161.6,28.4c2.9-3.4,7.3-5.1,13.2-5.1c5.9,0,10.4,1.7,13.2,5.1c2.9,3.4,4.3,8.6,4.3,15.7
		c0,7.1-1.4,12.3-4.3,15.8c-2.9,3.5-7.3,5.2-13.2,5.2c-6,0-10.4-1.7-13.2-5.2c-2.9-3.5-4.3-8.7-4.3-15.8
		C157.3,37,158.7,31.8,161.6,28.4z M168.4,34.4c-1.2,2-1.7,5.2-1.7,9.7c0,4.5,0.6,7.7,1.8,9.8c1.2,2,3.3,3,6.4,3c3.1,0,5.2-1,6.4-3
		c1.2-2,1.8-5.3,1.8-9.8s-0.6-7.7-1.7-9.7c-1.2-2-3.3-2.9-6.4-2.9C171.7,31.5,169.5,32.5,168.4,34.4z"/>
	<path id="fullLogo-3" class="st0" d="M213.7,64.9c-9,0-13.5-4.3-13.5-12.8c0-4.5,1.4-7.7,4.3-9.6c2.9-1.8,6.9-2.7,12-2.7
		c2.4,0,5.2,0.1,8.3,0.4c0-3.4-0.5-5.7-1.4-6.9c-1-1.2-2.6-1.9-5-1.9c-2.8,0-5.5,0.3-8.3,0.8c-2.5,0.4-4.9,1-7.2,1.7l-1.6-8
		c5.6-1.7,11.4-2.7,17.3-2.7c5.6,0,9.5,1.2,11.7,3.7c2.2,2.5,3.2,6.7,3.2,12.5v17.1l0.9,7.4l-8.7,0.8l-0.8-3.9
		C220.2,63.6,216.5,64.9,213.7,64.9z M215.1,56.7c1.8,0,3.6-0.4,5.2-1.1c1.6-0.6,3.2-1.4,4.5-2.4v-5.9c-3.4-0.3-6.1-0.4-8.3-0.4
		c-4.7,0-7,1.7-7,5.2C209.6,55.2,211.4,56.7,215.1,56.7L215.1,56.7z"/>
	<path id="fullLogo-4" class="st0" d="M242.5,64v-7.7H255V15.6l-10.9,0.1l-0.1-7.7L263.7,8v48.3h11.9V64H242.5z"/>
	<path id="fullLogo-5" class="st0" d="M282.4,62.1l1.9-7.7c5.3,1.7,9.6,2.5,12.7,2.5c3.1,0,5.3-0.3,6.4-0.9c1.1-0.6,1.8-1.8,1.7-3
		c0.1-1.2-0.5-2.4-1.5-3.1c-1.8-0.9-3.7-1.6-5.7-1.9c-5.6-1.4-9.4-2.9-11.6-4.5c-2.2-1.7-3.3-4.4-3.3-8.1c0-8,5.2-12,15.5-12
		c5.2,0.1,10.4,0.8,15.4,2.2l-1.6,8c-5.6-1.6-9.9-2.4-12.9-2.4c-3,0-5.1,0.3-6.1,0.8c-1,0.5-1.6,1.6-1.6,2.7
		c-0.1,1.2,0.5,2.3,1.6,2.8c2.6,1.1,5.3,2,8,2.7c4.3,1.2,7.5,2.5,9.5,4.1c2,1.5,3,4.2,3,7.9c0,8.5-5.2,12.7-15.7,12.7
		C292.8,64.7,287.5,63.8,282.4,62.1z"/>
	<path id="fullLogo-6" class="st0" d="M326.6,28.4c2.9-3.4,7.3-5.1,13.2-5.1c5.9,0,10.4,1.7,13.2,5.1c2.9,3.4,4.3,8.6,4.3,15.7
		c0,7.1-1.4,12.3-4.3,15.8c-2.9,3.5-7.3,5.2-13.2,5.2c-6,0-10.4-1.7-13.2-5.2c-2.9-3.5-4.3-8.7-4.3-15.8S323.8,31.8,326.6,28.4z
		 M333.4,34.4c-1.2,2-1.7,5.2-1.7,9.7c0,4.5,0.6,7.7,1.8,9.8c1.2,2,3.3,3,6.4,3c3.1,0,5.2-1,6.4-3c1.2-2,1.8-5.3,1.8-9.8
		s-0.6-7.7-1.7-9.7c-1.2-2-3.3-2.9-6.4-2.9C336.7,31.5,334.6,32.5,333.4,34.4z"/>
	<path id="fullLogo-7" class="st0" d="M365.9,64v-7.7h9.2V31.7h-8.8V24h8.8c0-6.1,1-10.3,3-12.8c2-2.5,5.5-3.7,10.4-3.7
		c3.7,0,7.4,0.5,10.9,1.4l-1.3,7.7c-2.9-0.7-5.8-1.1-8.8-1.2c-2.4,0-3.9,0.6-4.5,1.8c-0.7,1.2-1,3.5-1,6.9h14.7v7.7h-14.7v24.5h14.8
		V64H365.9z"/>
	<path id="fullLogo-8" class="st0" d="M406.4,31.7V24h6.8v-9.6l8.7-0.8V24h15.7v7.7h-15.7v16.8c0,3.1,0.3,5.3,0.9,6.5
		c0.6,1.3,1.9,1.9,3.8,1.9c3.9-0.1,7.8-0.6,11.6-1.6l1.4,7.5c-4.3,1.2-8.6,1.8-13.1,1.9c-5.4,0-9-1.2-10.7-3.6
		c-1.8-2.4-2.7-6.6-2.7-12.6V31.7H406.4z"/>
	<path id="logoMark" class="st1" d="M0,0v80.4h80.4V0H0z M69.4,21H21v6.1h48.4v42.3H11v-10h48.4v-6.1H11v-10h48.4v-6.1H11V11h58.4
		V21z"/>
</g>
</svg>
