<svg id="Layer_1" data-name="Layer 1" xmlns="http://www.w3.org/2000/svg" viewBox="0 0 439.6708 80.4218">
  <g>
    <path id="fullLogo" d="M140.11,38.5487V31.6439a22.3035,22.3035,0,0,0-3.79-.3358q-5.2222,0-7.2851,3.0292-2.0662,3.0326-2.0628,9.6015,0,6.569,2.1485,9.7249,2.1433,3.1611,7.5352,3.1594A42.4334,42.4334,0,0,0,147.69,55.3085l1.261,8.0836A45.7611,45.7611,0,0,1,136.32,65.0745q-18.6942,0-18.6959-21.0534,0-10.8609,4.2525-15.8724,4.2509-5.0115,14.19-5.01a46.7779,46.7779,0,0,1,12.2949,1.6V38.5487Z" style="fill: #27251f"/>
    <path id="fullLogo-2" data-name="fullLogo" d="M161.6011,28.4023q4.292-5.0937,13.22-5.0954,8.9231,0,13.22,5.0954,4.297,5.0937,4.297,15.7044,0,10.6091-4.297,15.79-4.292,5.1812-13.22,5.1777-8.9281,0-13.22-5.1777-4.297-5.181-4.2971-15.79T161.6011,28.4023Zm6.7779,6.0207q-1.7269,2.95-1.727,9.6837,0,6.7386,1.7682,9.77,1.768,3.0326,6.401,3.0326,4.6311,0,6.401-3.0326,1.7682-3.0325,1.7682-9.7695t-1.7271-9.6837q-1.7269-2.9453-6.4421-2.947Q170.1026,31.476,168.379,34.423Z" style="fill: #27251f"/>
    <path id="fullLogo-3" data-name="fullLogo" d="M213.7114,64.9066q-13.472,0-13.4737-12.7986,0-6.8208,4.3382-9.56,4.3331-2.7345,12-2.7345,3.6186,0,8.2514.4215,0-5.0526-1.4323-6.9082-1.4289-1.85-4.9687-1.85a47.9562,47.9562,0,0,0-8.2514.84,54.6283,54.6283,0,0,0-7.244,1.6859L201.3343,26a59.0671,59.0671,0,0,1,17.2635-2.6933q8.4194,0,11.661,3.7042,3.2433,3.7059,3.245,12.5485V56.6552l.9252,7.4119-8.6729.84-.8429-3.8721Q217.8406,64.91,213.7114,64.9066Zm1.3467-8.1691a14.7532,14.7532,0,0,0,5.2222-1.0932,16.9672,16.9672,0,0,0,4.5472-2.4432V47.3073q-5.0526-.4215-8.2514-.4215-6.99,0-6.99,5.2222Q209.5857,56.7393,215.0581,56.7375Z" style="fill: #27251f"/>
    <path id="fullLogo-4" data-name="fullLogo" d="M242.4593,63.9814V56.2337h12.5485V15.6414l-10.8626.0857L244.06,8.065l19.6245-.0856V56.2337h11.8734v7.7477Z" style="fill: #27251f"/>
    <path id="fullLogo-5" data-name="fullLogo" d="M282.409,62.1276l1.8539-7.662q7.9979,2.5237,12.7164,2.5254,4.7133,0,6.401-.9252a3.0915,3.0915,0,0,0,1.6825-3.0326,3.3567,3.3567,0,0,0-1.5146-3.1148,22.3245,22.3245,0,0,0-5.726-1.9361q-8.337-2.0252-11.6233-4.5061-3.2844-2.4825-3.2827-8.128,0-12.043,15.4954-12.0413a64.5767,64.5767,0,0,1,15.41,2.19l-1.6,7.9978q-8.3371-2.3541-12.8843-2.3575-4.5489,0-6.1063.8018a2.8256,2.8256,0,0,0-1.5557,2.7379,3.0022,3.0022,0,0,0,1.5557,2.82,46.6525,46.6525,0,0,0,8.0424,2.6522q6.4866,1.7682,9.5158,4.0846,3.0327,2.3183,3.0326,7.8745,0,12.7164-15.6633,12.7164A51.7684,51.7684,0,0,1,282.409,62.1276Z" style="fill: #27251f"/>
    <path id="fullLogo-6" data-name="fullLogo" d="M326.647,28.4023q4.292-5.0937,13.22-5.0954,8.9231,0,13.22,5.0954,4.2971,5.0937,4.297,15.7044,0,10.6091-4.297,15.79-4.2919,5.1812-13.22,5.1777-8.9281,0-13.22-5.1777-4.297-5.181-4.297-15.79T326.647,28.4023Zm6.778,6.0207q-1.7271,2.95-1.7271,9.6837,0,6.7386,1.7682,9.77,1.7681,3.0326,6.401,3.0326,4.6311,0,6.401-3.0326,1.7682-3.0325,1.7682-9.7695t-1.7271-9.6837q-1.7269-2.9453-6.4421-2.947Q335.1486,31.476,333.425,34.423Z" style="fill: #27251f"/>
    <path id="fullLogo-7" data-name="fullLogo" d="M365.8656,63.9814V56.2337h9.18V31.7262h-8.8443V23.9785h8.8443q0-9.0927,2.988-12.84,2.9915-3.747,10.4-3.7487a47.2361,47.2361,0,0,1,10.9482,1.4323l-1.3467,7.6621a41.1408,41.1408,0,0,0-8.7586-1.1788q-3.5362,0-4.5472,1.7681-1.0074,1.7682-1.0108,6.9048H398.371v7.7477H383.7186V56.2337h14.8237v7.7477Z" style="fill: #27251f"/>
    <path id="fullLogo-8" data-name="fullLogo" d="M406.4047,31.7262V23.9785h6.8225V14.38l8.6729-.843V23.9785h15.749v7.7477H421.9V48.5717q0,4.6311.9252,6.5244.9252,1.8966,3.79,1.8949a50.5017,50.5017,0,0,0,11.6233-1.6l1.4323,7.4975a51.9006,51.9006,0,0,1-13.0556,1.9361q-8.0852,0-10.7357-3.622-2.6523-3.6186-2.6523-12.6307V31.7262Z" style="fill: #27251f"/>
    <path id="logoMark" d="M0,0V80.4218H80.4218V0ZM69.41,21.0256H21.0248v6.115H69.41V69.4094H11.0115V59.3961H59.3969V53.2812H11.0115V43.2679H59.3969V37.1538H11.0115V11.0123H69.41Z" style="fill: #00b5e2"/>
  </g>
</svg>
