<?xml version="1.0" encoding="utf-8"?>
<!-- Generator: Adobe Illustrator 28.2.0, SVG Export Plug-In . SVG Version: 6.00 Build 0)  -->
<svg version="1.1" id="Layer_1" xmlns="http://www.w3.org/2000/svg" xmlns:xlink="http://www.w3.org/1999/xlink" x="0px" y="0px"
	 viewBox="0 0 394 80.4" style="enable-background:new 0 0 394 80.4;" xml:space="preserve">
<style type="text/css">
	.st0{fill:#D8DAE0;}
	.st1{fill:#FF9E1B;}
</style>
<g>
	<g>
		<path id="fullLogo" class="st0" d="M139.5,38.5v-6.8c-1.2-0.2-2.5-0.3-3.8-0.3c-3.4,0-5.9,1-7.2,3c-1.4,2-2,5.2-2,9.5
			c0,4.3,0.7,7.6,2.1,9.6c1.4,2.1,3.9,3.1,7.5,3.1c3.7,0,7.4-0.5,10.9-1.5l1.3,8c-4.1,1.1-8.3,1.7-12.5,1.7
			c-12.3,0-18.5-7-18.5-20.9c0-7.2,1.4-12.4,4.2-15.7c2.8-3.3,7.5-5,14.1-5c4.1,0,8.2,0.5,12.2,1.6v13.7H139.5z"/>
		<path id="fullLogo-2" class="st0" d="M161.2,28.5c2.8-3.4,7.2-5,13.1-5c5.9,0,10.3,1.7,13.1,5c2.8,3.4,4.3,8.6,4.3,15.6
			c0,7-1.4,12.2-4.3,15.6c-2.8,3.4-7.2,5.1-13.1,5.1c-5.9,0-10.3-1.7-13.1-5.1c-2.8-3.4-4.3-8.6-4.3-15.6
			C156.9,37,158.3,31.8,161.2,28.5z M167.9,34.4c-1.1,1.9-1.7,5.1-1.7,9.6c0,4.4,0.6,7.7,1.8,9.7c1.2,2,3.3,3,6.3,3
			c3.1,0,5.2-1,6.3-3c1.2-2,1.8-5.2,1.8-9.7s-0.6-7.6-1.7-9.6c-1.1-1.9-3.3-2.9-6.4-2.9C171.2,31.5,169,32.5,167.9,34.4L167.9,34.4z
			"/>
		<path id="fullLogo-3" class="st0" d="M212.4,64.6c-8.9,0-13.3-4.2-13.3-12.7c0-4.5,1.4-7.7,4.3-9.5c2.9-1.8,6.8-2.7,11.9-2.7
			c2.4,0,5.1,0.1,8.2,0.4c0-3.3-0.5-5.6-1.4-6.8c-0.9-1.2-2.6-1.8-4.9-1.8c-2.7,0-5.5,0.3-8.2,0.8c-2.4,0.4-4.8,1-7.2,1.7l-1.6-7.9
			c5.5-1.7,11.3-2.6,17.1-2.7c5.6,0,9.4,1.2,11.6,3.7c2.1,2.4,3.2,6.6,3.2,12.4v16.9l0.9,7.3l-8.6,0.8l-0.8-3.8
			C218.8,63.3,215.1,64.6,212.4,64.6z M213.7,56.5c1.8,0,3.5-0.4,5.2-1.1c1.6-0.6,3.1-1.4,4.5-2.4v-5.8c-3.3-0.3-6.1-0.4-8.2-0.4
			c-4.6,0-6.9,1.7-6.9,5.2C208.3,55,210.1,56.5,213.7,56.5L213.7,56.5z"/>
		<path id="fullLogo-4" class="st0" d="M241.1,63.7V56h12.4V15.8l-10.8,0.1l-0.1-7.6l19.4-0.1V56h11.8v7.7L241.1,63.7z"/>
		<path id="fullLogo-5" class="st0" d="M281.3,63.7V56h12.4V31.8h-11.8v-7.7h20.4V56h11.8v7.7L281.3,63.7z M297.6,18.3
			c-1.5,0.1-2.9-0.5-4-1.5c-1-1.1-1.5-2.6-1.5-4c-0.1-1.5,0.5-2.9,1.5-4c1.1-1,2.5-1.6,4-1.5c1.5-0.1,2.9,0.4,3.9,1.5
			c1,1.1,1.5,2.6,1.4,4c0.1,1.5-0.4,3-1.4,4.1C300.5,17.9,299.1,18.4,297.6,18.3z"/>
		<path id="fullLogo-6" class="st0" d="M324.3,28.5c2.8-3.4,7.2-5,13.1-5c5.9,0,10.3,1.7,13.1,5c2.8,3.4,4.3,8.6,4.3,15.6
			c0,7-1.4,12.2-4.3,15.6c-2.8,3.4-7.2,5.1-13.1,5.1c-5.9,0-10.3-1.7-13.1-5.1c-2.8-3.4-4.3-8.6-4.3-15.6
			C320.1,37,321.5,31.8,324.3,28.5z M331,34.4c-1.1,1.9-1.7,5.1-1.7,9.6c0,4.4,0.6,7.7,1.8,9.7c1.2,2,3.3,3,6.3,3s5.2-1,6.3-3
			c1.2-2,1.8-5.2,1.8-9.7s-0.6-7.6-1.7-9.6c-1.1-1.9-3.3-2.9-6.4-2.9C334.3,31.5,332.2,32.5,331,34.4z"/>
		<path id="fullLogo-7" class="st0" d="M362.9,61.9l1.8-7.6c5.3,1.7,9.5,2.5,12.6,2.5c3.1,0,5.2-0.3,6.3-0.9c1.1-0.6,1.8-1.8,1.7-3
			c0.1-1.2-0.5-2.4-1.5-3.1c-1.8-0.9-3.7-1.5-5.7-1.9c-5.5-1.3-9.3-2.8-11.5-4.5c-2.2-1.6-3.3-4.3-3.3-8c0-8,5.1-11.9,15.3-11.9
			c5.2,0.1,10.3,0.8,15.3,2.2l-1.6,7.9c-5.5-1.6-9.8-2.3-12.8-2.3c-3,0-5,0.3-6,0.8c-1,0.5-1.6,1.6-1.5,2.7
			c-0.1,1.2,0.5,2.2,1.5,2.8c2.6,1.1,5.2,2,8,2.6c4.3,1.2,7.4,2.5,9.4,4s3,4.1,3,7.8c0,8.4-5.2,12.6-15.5,12.6
			C373.2,64.5,368,63.6,362.9,61.9z"/>
	</g>
	<path id="logoMark" class="st1" d="M0,0v80.4h80.4V0H0z M54.3,69.4H10V27.1h10v32.3h34.3V69.4z M54.3,37.2v15h-10v-15h-15v-10h25
		V37.2z M70.4,21v31.1h-10V21H29.3V11h41.1V21z"/>
</g>
</svg>
